<svg id="Layer_1" height="512" viewBox="0 0 512 512" width="512" xmlns="http://www.w3.org/2000/svg" data-name="Layer 1"><g fill-rule="evenodd"><path d="m312.669 100.288c6.255 0 11.357 5.103 11.357 11.357v261.114h-264.359c-12.456 0-22.62-10.162-22.62-22.62v-238.494c0-6.254 5.102-11.357 11.357-11.357z" fill="#323e66"/><path d="m324.026 372.759h-264.359c-12.459 0-22.62-10.162-22.62-22.62v-38.283h286.979v60.904z" fill="#e37500"/><path d="m485.755 372.759h-161.729v-186.34h97.774c7.146 0 13.298 2.704 18.13 7.97l39.349 42.88c4.331 4.72 6.477 10.231 6.477 16.637v118.854z" fill="#f9ac00"/><path d="m469.505 372.759h-145.48v-186.34h81.524c7.146 0 13.298 2.704 18.13 7.97l39.349 42.88c4.331 4.72 6.477 10.231 6.477 16.637v118.854z" fill="#fdc72e"/><path d="m371.352 257.717v-52.102h78.88l29.046 31.653c4.331 4.72 6.477 10.231 6.477 16.637v3.812z" fill="#e9e9ff"/><path d="m371.352 257.717v-52.102h62.63l29.047 31.653c4.331 4.72 6.477 10.231 6.477 16.637v3.812h-98.153z" fill="#f0f0ff"/><path d="m485.755 350.968h-448.708v21.79h450.364c8.861 0 16.089-7.227 16.089-16.089v-29.336h-17.745z" fill="#7986bf"/><path d="m387.973 292.33c2.761 0 5 2.239 5 5s-2.239 5-5 5h-21.497c-2.761 0-5-2.239-5-5s2.239-5 5-5z" fill="#e37500"/></g><path d="m37.047 332.789h23.169v18.178h-23.169z" fill="#323e66"/><path d="m463.391 291.134h22.364v25.908h-22.364z" fill="#323e66"/><circle cx="398.654" cy="372.759" fill="#323e66" r="38.953" transform="matrix(.707 -.707 .707 .707 -146.817 391.07)"/><path d="m398.654 391.899c10.542 0 19.14-8.598 19.14-19.14s-8.598-19.14-19.14-19.14-19.14 8.598-19.14 19.14 8.598 19.14 19.14 19.14z" fill="#fdc72e" fill-rule="evenodd"/><circle cx="120.876" cy="372.759" fill="#323e66" r="38.953" transform="matrix(.974 -.225 .225 .974 -80.695 36.709)"/><path d="m120.876 391.899c10.542 0 19.14-8.598 19.14-19.14s-8.598-19.14-19.14-19.14-19.14 8.598-19.14 19.14 8.598 19.14 19.14 19.14z" fill="#fdc72e" fill-rule="evenodd"/><path d="m154.525 235.622h76.233v76.233h-76.233z" fill="#e6b17c"/><path d="m181.497 235.622h22.288v24.799l-11.144-5.593-11.144 5.593z" fill="#fdc72e" fill-rule="evenodd"/><path d="m154.525 159.389h76.233v76.233h-76.233z" fill="#ba8047"/><path d="m181.497 159.389h22.288v24.799l-11.144-5.593-11.144 5.593z" fill="#2dd62d" fill-rule="evenodd"/><path d="m230.758 235.622h76.233v76.233h-76.233z" fill="#dea368"/><path d="m257.729 235.622h22.289v24.799l-11.144-5.593-11.145 5.593z" fill="#fb545c" fill-rule="evenodd"/><path d="m230.758 135.313h76.233v100.309h-76.233z" fill="#fdd7ad"/><path d="m257.729 135.313h22.289v24.799l-11.144-5.593-11.145 5.593z" fill="#5caeff" fill-rule="evenodd"/><path d="m78.292 235.622h76.233v76.233h-76.233z" fill="#fdd7ad"/><path d="m105.264 235.622h22.288v24.799l-11.144-5.593-11.144 5.593z" fill="#5caeff" fill-rule="evenodd"/><path d="m324.026 186.418h93.116l-15.238-15.238c-2.093-2.092-4.64-3.148-7.599-3.148h-70.279z" fill="#e37500" fill-rule="evenodd"/><path d="m23.852 213.801c-2.761 0-5-2.239-5-5s2.239-5 5-5h57.117c2.761 0 5 2.239 5 5s-2.239 5-5 5zm8.926-57.831c-2.761 0-5-2.239-5-5s2.239-5 5-5h33.199c2.761 0 5 2.239 5 5s-2.239 5-5 5zm-19.278-22.847c-2.761 0-5-2.239-5-5s2.239-5 5-5h42.838c2.761 0 5 2.239 5 5s-2.239 5-5 5zm4.627 53.904c-2.761 0-5-2.239-5-5s2.239-5 5-5h41.068c2.761 0 5 2.239 5 5s-2.239 5-5 5z" fill="#fdc72e" fill-rule="evenodd"/><path d="m78.292 235.622h8.362v76.233h-8.362z" fill="#f2c496"/><path d="m154.525 235.622h8.362v76.233h-8.362z" fill="#dea368"/><path d="m230.758 235.622h8.362v76.233h-8.362z" fill="#d19458"/><path d="m230.758 135.313h8.362v100.309h-8.362z" fill="#f2c496"/><path d="m154.525 159.389h8.362v76.233h-8.362z" fill="#ab733a"/></svg>